<svg width="27" height="24" viewBox="0 0 27 24" fill="none" xmlns="http://www.w3.org/2000/svg">
<path fillRule="evenodd" clipRule="evenodd" d="M23.3367 6.66787C25.5399 8.3937 26.6256 10.7804 26.6652 13.5288C26.6914 15.3485 26.3718 17.137 25.5517 18.7085C25.1394 19.4142 24.6189 20.0714 23.9757 20.6616C21.8985 22.5673 19.1113 23.2429 16.2648 23.2838C13.4183 23.3247 10.6127 22.7295 8.48155 20.8843C7.54044 20.0695 6.84535 19.1118 6.35442 18.0647C5.30299 18.1278 4.22527 17.8219 3.33119 17.1222L3.32997 17.1212C1.12672 15.3954 0.0410695 13.0087 0.00148101 10.2603C-0.0247292 8.44067 0.295015 6.6518 1.11513 5.0803C1.52743 4.37461 2.04773 3.71768 2.69101 3.1275C4.76812 1.22187 7.55539 0.546265 10.4019 0.505356C13.2484 0.464446 16.054 1.05967 18.1851 2.90483C19.1262 3.71965 19.8213 4.67731 20.3122 5.72446C21.3637 5.66136 22.4414 5.96721 23.3355 6.66692L23.3367 6.66787ZM4.78211 10.1266C4.78211 11.3999 5.18022 12.2915 6.07362 13.0182C6.47454 13.3443 6.53808 13.939 6.2138 14.3442C5.88952 14.7495 5.3017 14.8127 4.89986 14.4856C3.56348 13.397 2.91305 11.972 2.91305 10.1266C2.91305 5.65256 5.43254 3.38398 10.4052 3.38398C15.3778 3.38398 17.8982 5.65256 17.8982 10.1266C17.8982 11.9776 17.2478 13.4036 15.9095 14.4866C15.7376 14.626 15.531 14.6939 15.3254 14.6939C15.0526 14.6939 14.7806 14.5733 14.5965 14.3414C14.2732 13.9352 14.3377 13.3414 14.7404 13.0163C15.632 12.2943 16.0301 11.4027 16.0301 10.1266C16.0301 7.72416 15.3619 5.26897 10.4061 5.26897C5.45029 5.26897 4.78211 7.72511 4.78211 10.1266ZM20.1719 9.38955C20.4962 8.98522 21.084 8.92019 21.4858 9.24818V9.24723C22.8222 10.3358 23.4727 11.7609 23.4727 13.6063C23.4727 18.0803 20.9522 20.3489 15.9796 20.3489C11.007 20.3489 8.48658 18.0803 8.48658 13.6063C8.48658 11.7552 9.13701 10.3292 10.4752 9.24629C10.8771 8.92019 11.4658 8.98428 11.7892 9.39144C12.1125 9.79765 12.0481 10.3914 11.6453 10.7166C10.7537 11.4385 10.3556 12.3301 10.3556 13.6063C10.3556 16.0087 11.0238 18.4639 15.9796 18.4639C20.9354 18.4639 21.6036 16.0077 21.6036 13.6063C21.6036 12.333 21.2055 11.4414 20.3121 10.7147C19.9112 10.3886 19.8476 9.79482 20.1719 9.38955Z" fill="#2C46B1"/>
</svg>
